PathFileType	4	(X/Y/Z)	/Users/niels/Desktop/University/Third Semester/Perception and Action/Exam/Gymnastics Motion Tracking/Code for Gym Tracking/Analyzed Data/Webcam_Backflip/id6_1_baseline_Sports2D/id6_1_baseline_Sports2D_px_person00.trc
DataRate	CameraRate	NumFrames	NumMarkers	Units	OrigDataRate	OrigDataStartFrame	OrigNumFrames
29.702970297029704	29.702970297029704	8	22	m	29.702970297029704	50	101
Frame#	Time	Hip			RHip			RKnee			RAnkle			RBigToe			RSmallToe			RHeel			LHip			LKnee			LAnkle			LBigToe			LSmallToe			LHeel			Neck			Head			Nose			RShoulder			RElbow			RWrist			LShoulder			LElbow			LWrist		
		X1	Y1	Z1	X2	Y2	Z2	X3	Y3	Z3	X4	Y4	Z4	X5	Y5	Z5	X6	Y6	Z6	X7	Y7	Z7	X8	Y8	Z8	X9	Y9	Z9	X10	Y10	Z10	X11	Y11	Z11	X12	Y12	Z12	X13	Y13	Z13	X14	Y14	Z14	X15	Y15	Z15	X16	Y16	Z16	X17	Y17	Z17	X18	Y18	Z18	X19	Y19	Z19	X20	Y20	Z20	X21	Y21	Z21	X22	Y22	Z22
50	1.6833333333333331	0.9247507169711612	-0.7154146318408673	0.0	0.9196478870284733	-0.7187100137309482	0.0	0.9178842183925691	-0.9728924655939082	0.0	0.8976464458137058	-1.0803202291409761	0.0	0.9724758985039533	-1.0876079841790136	0.0	0.9544310676165878	-1.1489583317414136	0.0	0.8660828296530274	-1.093305388322267	0.0	0.9267840570176883	-0.7196323589035813	0.0	0.9168274771006472	-0.9632178174038243	0.0	0.8937763254164497	-1.0695585937545244	0.0	0.9998757670402273	-1.0771048228315143	0.0	0.9820151705732105	-1.0740434808313297	0.0	0.8602244947402778	-1.0738166159653957	0.0	0.9565107059417685	-0.396366452743381	0.0	0.9954703594293064	-0.26285318062765417	0.0	1.0119122232331519	-0.3464492064139968	0.0	0.9268478833441169	-0.43047052808254266	0.0	1.1120950815571293	-0.47622026290928354	0.0	1.272275635010502	-0.4564648769951916	0.0	0.9535255484766618	-0.4312086780825046	0.0	0.9549710765552804	-0.54817342961782	0.0	1.193786747443249	-0.5762900761169771	0.0
51	1.7169999999999999	0.92590332412647	-0.7145385226968308	0.0	0.9205849639754495	-0.7179445501279094	0.0	0.9185836125227628	-0.9719588072837262	0.0	0.8983862488591277	-1.0804689616380294	0.0	0.9724758436596816	-1.0876079687228333	0.0	0.9544310630012972	-1.1489583250766593	0.0	0.8679839285441925	-1.0941810724007741	0.0	0.9257756777937836	-0.7183002334661727	0.0	0.9164101753417464	-0.9620064876537794	0.0	0.8936053040433604	-1.0692210292489222	0.0	0.9992082436804508	-1.0764984156433124	0.0	0.9791068125297897	-1.07283621137995	0.0	0.8608592772516217	-1.073711957721194	0.0	0.9566814715782567	-0.3961013324055033	0.0	0.9964108716836737	-0.26339908125027905	0.0	1.0128773100191748	-0.34652187594979417	0.0	0.9272963649638811	-0.42771570165325545	0.0	1.1184308125833107	-0.45497562694144333	0.0	1.2727265154574885	-0.4218341346961268	0.0	0.9522829278628947	-0.4285319352913583	0.0	0.9418715892702595	-0.553466557565324	0.0	1.1942038856230694	-0.5758113609682657	0.0
52	1.7506666666666666	0.9272640411534566	-0.713781856567534	0.0	0.9217464323030199	-0.7172110084246043	0.0	0.9193893870183081	-0.9703477400556842	0.0	0.8990922665632018	-1.0808827719721772	0.0	0.9724758459438082	-1.0876080243706496	0.0	0.9544310487138966	-1.148958302666414	0.0	0.870291001818069	-1.0953007484580146	0.0	0.9262850538468234	-0.7171043866896483	0.0	0.9167584578558753	-0.9605200534566033	0.0	0.8943683239393316	-1.0694043664863604	0.0	0.9973344188864606	-1.0753949646069816	0.0	0.976313579857103	-1.0716055435821747	0.0	0.8619284794678688	-1.0737571651299205	0.0	0.9565331512160022	-0.39601771977706807	0.0	0.9973226760806324	-0.26389342277904726	0.0	1.0137659754099502	-0.346353668632736	0.0	0.9281329215794267	-0.4250154670826935	0.0	1.1222914618044628	-0.43293780473169574	0.0	1.2685439187999399	-0.38774489238572063	0.0	0.9493296755758848	-0.4262827346892295	0.0	0.9359290821623297	-0.5577471190888477	0.0	1.1940758640754527	-0.5760781980420023	0.0
53	1.784333333333333	0.9286396701416889	-0.713266286435335	0.0	0.9233905997879439	-0.7166036860236777	0.0	0.9203317938108642	-0.9684946799619282	0.0	0.8997952055164805	-1.0816148433421537	0.0	0.9724758707405429	-1.087608094913483	0.0	0.9544310203348163	-1.148958256761265	0.0	0.8729111980658331	-1.0967223663225674	0.0	0.9275499569577117	-0.7163879122378372	0.0	0.9177532883793194	-0.959376068153961	0.0	0.8957763644663589	-1.0701787959997464	0.0	0.9937596453101813	-1.0737379609243205	0.0	0.9738172191302272	-1.0705493223385267	0.0	0.8629498070057288	-1.0740284725962843	0.0	0.9561229916637846	-0.3961334055393365	0.0	0.9985848268637156	-0.26429437637496933	0.0	1.0146673305048937	-0.3459684190461081	0.0	0.9296976700796976	-0.422198799073625	0.0	1.1236286617823492	-0.41038675905188027	0.0	1.2603933760917858	-0.3543246007357418	0.0	0.9440998796513238	-0.42463588991365986	0.0	0.9354569103427105	-0.5601708972462921	0.0	1.1927095861952177	-0.5765581044124223	0.0
54	1.8179999999999998	0.9297857832615658	-0.7130295649176903	0.0	0.9258490712915665	-0.7161906074285921	0.0	0.9215050295336837	-0.9672185205150696	0.0	0.900677516831709	-1.0827331188893576	0.0	0.9724758967035718	-1.087608153606284	0.0	0.9544309763685745	-1.148958183945546	0.0	0.8759716319163271	-1.0985453804454555	0.0	0.9282374011358395	-0.7163902410948473	0.0	0.9189989595288448	-0.9593643806854082	0.0	0.8974041792420653	-1.071496992852943	0.0	0.9883940719767699	-1.0717746324113986	0.0	0.9715248871285074	-1.0699371896908674	0.0	0.8632328572751122	-1.0746517459625138	0.0	0.9555413801946145	-0.3963936858064531	0.0	1.0005427788957004	-0.26461795808874533	0.0	1.015574473297035	-0.34540832601203125	0.0	0.9321281788911013	-0.419006360773427	0.0	1.1218365563267156	-0.3879036986273353	0.0	1.2486724024753901	-0.3217259692336218	0.0	0.9368102437191794	-0.42367349082396766	0.0	0.9382105882192974	-0.5609727124679676	0.0	1.1881601028819329	-0.5768358448997013	0.0
55	1.8516666666666666	0.9304990481580523	-0.7129911818745884	0.0	0.9291837483466846	-0.7159307115634373	0.0	0.9229526031781486	-0.9672613352720477	0.0	0.901871043919556	-1.0843561599178486	0.0	0.9724759132651636	-1.0876081930851387	0.0	0.9544309233807061	-1.1489580935345636	0.0	0.8795046431195991	-1.1008898320856244	0.0	0.9274117139643134	-0.7171031947939768	0.0	0.9200231960288411	-0.9609182954254154	0.0	0.8988518475072318	-1.0732151095090112	0.0	0.9819761155683773	-1.0701792713864966	0.0	0.9692926834946557	-1.070208921707199	0.0	0.8623085355391131	-1.0757795923072506	0.0	0.9549348810400502	-0.39669845468675374	0.0	1.0032627620431782	-0.2649648076362985	0.0	1.0164112410506723	-0.34476089019583117	0.0	0.9351254767119208	-0.4153632977041539	0.0	1.1161819223383886	-0.3662826689537854	0.0	1.2336620242967522	-0.29027777202591176	0.0	0.9287881326463218	-0.4234912176050774	0.0	0.942390039166039	-0.5609142455211334	0.0	1.1776430847413126	-0.5765654100770128	0.0
56	1.885333333333333	0.9306921494638999	-0.7130228833156166	0.0	0.9329761214899428	-0.7156502122636957	0.0	0.9245935517055498	-0.9688922372757364	0.0	0.9032510073490477	-1.0867244300342744	0.0	0.9724759169891048	-1.0876082156653244	0.0	0.9544308831728705	-1.1489580195952394	0.0	0.88302977328568	-1.1039500750958646	0.0	0.9249583310276184	-0.7182388748659378	0.0	0.9205123097133976	-0.9638280249417874	0.0	0.8998630841987054	-1.0752384493412224	0.0	0.9760699803634647	-1.0698112061324199	0.0	0.9674191907712102	-1.0719526383083684	0.0	0.8603441817633914	-1.0776963338601229	0.0	0.9544441882250259	-0.3970094014046543	0.0	1.0064657895334874	-0.26549778825582293	0.0	1.0171124466494381	-0.3441322728351596	0.0	0.9379791837813614	-0.4115764833174868	0.0	1.106299456652158	-0.34622711371569986	0.0	1.2155417351662277	-0.2605378800443156	0.0	0.9220237699810112	-0.4242828100356887	0.0	0.9470337318754367	-0.5609714570192149	0.0	1.1585827160832622	-0.575451544629558	0.0
57	1.9189999999999998	0.9304639124362535	-0.713149429628982	0.0	0.9365466568132939	-0.7152376260883447	0.0	0.9262233580550819	-0.9720498663195614	0.0	0.9044758412091565	-1.0902959118582605	0.0	0.9724759089528415	-1.0876082261744877	0.0	0.954430900205499	-1.148958033887278	0.0	0.8855732579618045	-1.108043272185666	0.0	0.921548479108482	-0.7194511459218546	0.0	0.9204440813921003	-0.9675923008573148	0.0	0.9004077404847213	-1.0777428502522597	0.0	0.972567057464557	-1.0712829255253113	0.0	0.9669739083327767	-1.0757710815450163	0.0	0.858173232649597	-1.0809676241434172	0.0	0.9541143963664233	-0.3975076529885061	0.0	1.009632546687285	-0.26636994825874694	0.0	1.017621534993133	-0.34351361675380393	0.0	0.9398546870404921	-0.4081977205841425	0.0	1.092317894087224	-0.32812126701406513	0.0	1.194287604575983	-0.2332481693175409	0.0	0.9184339955356023	-0.42641993630884834	0.0	0.9520874166970067	-0.562154834260623	0.0	1.1306936612494056	-0.5733234786094176	0.0
